<?xml version="1.0" standalone="no"?>
<!DOCTYPE svg PUBLIC "-//W3C//DTD SVG 20010904//EN"
 "http://www.w3.org/TR/2001/REC-SVG-20010904/DTD/svg10.dtd">
<svg version="1.0" xmlns="http://www.w3.org/2000/svg"
 width="563.000000pt" height="563.000000pt" viewBox="0 0 563.000000 563.000000"
 preserveAspectRatio="xMidYMid meet">
<metadata>
Created by potrace 1.11, written by Peter Selinger 2001-2013
</metadata>
<g transform="translate(0.000000,563.000000) scale(0.100000,-0.100000)"
fill="#000000" stroke="none">
<path d="M5 5458 c4 -13 11 -36 16 -53 14 -44 185 -624 197 -665 5 -19 21 -73
35 -120 46 -152 138 -463 162 -545 13 -44 49 -164 79 -267 31 -104 80 -270
110 -370 30 -101 84 -284 120 -408 37 -124 70 -230 74 -237 18 -29 903 -1259
934 -1298 8 -10 76 -104 258 -357 52 -73 156 -216 230 -318 74 -103 212 -293
305 -423 l170 -237 117 0 116 0 53 73 c30 39 69 94 88 122 19 27 38 54 43 60
16 21 104 141 121 165 9 14 34 48 54 77 56 76 156 215 173 240 8 12 54 75 101
140 47 65 164 226 259 358 95 132 190 263 210 290 32 43 512 708 558 774 16
22 40 55 165 225 69 95 82 121 111 221 29 101 54 185 156 530 39 132 87 294
106 360 19 66 41 138 48 160 8 22 78 258 156 525 78 267 144 492 147 500 4 8
7 20 8 25 2 6 10 35 19 65 9 30 23 75 31 100 7 25 25 86 40 135 14 50 32 109
39 133 l13 42 -2814 0 -2814 0 6 -22z"/>
</g>
</svg>
